<svg xmlns="http://www.w3.org/2000/svg" viewBox="0 0 603.49 149.05"><defs><style>.cls-1{fill:#328476;}.cls-2{fill:#e85581;}</style></defs><g id="Layer_2" data-name="Layer 2"><g id="Layer_3" data-name="Layer 3"><path class="cls-1" d="M43.34,1.3a.44.44,0,0,1-.12.87,41.44,41.44,0,0,0-9,1.17A37.35,37.35,0,0,0,24,7.53a36.36,36.36,0,0,0-8.29,6.84,9.27,9.27,0,0,0-.87,1l-.82,1a20.23,20.23,0,0,0-1.53,2.17l-.73,1.11-.63,1.17a23.69,23.69,0,0,0-1.19,2.36A35.87,35.87,0,0,0,7.34,44.08c.18.88.3,1.78.54,2.66l.74,2.64a52.48,52.48,0,0,0,2.08,5.16,43.6,43.6,0,0,0,5,8,.45.45,0,0,1-.58.66,29.32,29.32,0,0,1-7.61-6.56A40.07,40.07,0,0,1,4,51.39L2.65,48.52A13.59,13.59,0,0,1,2.08,47l-.52-1.51A34.8,34.8,0,0,1,3.39,20.22a36.23,36.23,0,0,1,7.5-10.51c.8-.73,1.59-1.46,2.42-2.15l2.61-1.89a12,12,0,0,1,1.37-.84l1.4-.78a25.29,25.29,0,0,1,2.86-1.41A32.25,32.25,0,0,1,43.34,1.3Z" transform="translate(0 0)"/><path class="cls-1" d="M53.76,15.07a.65.65,0,0,1-.12,1.27,31.73,31.73,0,0,0-4.72.64,27.65,27.65,0,0,0-7.72,2.93,26.93,26.93,0,0,0-6.33,4.95,5.89,5.89,0,0,0-.67.74l-.63.76A16.45,16.45,0,0,0,32.38,28l-.57.81-.49.87a16.12,16.12,0,0,0-.93,1.74A26.78,26.78,0,0,0,28,46.88c.12.66.19,1.34.36,2l.49,2a39.22,39.22,0,0,0,1.46,3.9,30.64,30.64,0,0,0,2.59,4.62.65.65,0,0,1-.91.89,22.23,22.23,0,0,1-4.08-4,29.06,29.06,0,0,1-2.53-4l-1-2.17A10.75,10.75,0,0,1,24.06,49l-.36-1.14A26,26,0,0,1,25.56,29a27,27,0,0,1,5.81-7.71c.61-.53,1.22-1.06,1.85-1.56l2-1.35a9,9,0,0,1,1-.6l1.06-.56a19.27,19.27,0,0,1,2.17-1A24.39,24.39,0,0,1,53.76,15.07Z" transform="translate(0 0)"/><path class="cls-1" d="M62.14,29.37a.5.5,0,0,1,0,1,18.74,18.74,0,0,0-2.51.38,17.7,17.7,0,0,0-5,1.91,17.42,17.42,0,0,0-4.13,3.23,4,4,0,0,0-.44.48l-.41.5a11.14,11.14,0,0,0-.78,1l-.37.53L48.1,39a10.28,10.28,0,0,0-.61,1.13A17.56,17.56,0,0,0,46,50.24c.08.43.13.88.23,1.31l.33,1.29a25.41,25.41,0,0,0,1,2.55A19.32,19.32,0,0,0,48.88,58a.51.51,0,0,1-.74.68,15.37,15.37,0,0,1-2.25-2.31,19.64,19.64,0,0,1-1.65-2.59l-.63-1.42a5.7,5.7,0,0,1-.25-.73l-.24-.75a17,17,0,0,1,1.21-12.29,17.66,17.66,0,0,1,3.8-5c.39-.34.79-.69,1.2-1l1.3-.88a4.6,4.6,0,0,1,.68-.39l.69-.37a12,12,0,0,1,1.41-.65A16,16,0,0,1,62.14,29.37Z" transform="translate(0 0)"/><path class="cls-1" d="M99.3,1.3a.44.44,0,0,0,.12.87,41.52,41.52,0,0,1,9,1.17,37.16,37.16,0,0,1,10.23,4.19,36.2,36.2,0,0,1,8.3,6.84,9.18,9.18,0,0,1,.86,1l.83,1a23.53,23.53,0,0,1,1.53,2.17l.73,1.11.62,1.17a23.69,23.69,0,0,1,1.19,2.36,36,36,0,0,1,2.6,20.84c-.19.88-.3,1.78-.55,2.66L134,49.38a52.58,52.58,0,0,1-2.09,5.16,43.07,43.07,0,0,1-5,8,.45.45,0,0,0,.58.66,29.16,29.16,0,0,0,7.61-6.56,39.15,39.15,0,0,0,3.53-5.22L140,48.52a11.79,11.79,0,0,0,.56-1.5l.52-1.51a34.8,34.8,0,0,0-1.82-25.29,36.26,36.26,0,0,0-7.51-10.51c-.8-.73-1.59-1.46-2.41-2.15l-2.62-1.89a11.15,11.15,0,0,0-1.37-.84L124,4.05a26.15,26.15,0,0,0-2.86-1.41A32.25,32.25,0,0,0,99.3,1.3Z" transform="translate(0 0)"/><path class="cls-1" d="M88.88,15.07A.65.65,0,0,0,89,16.34a32,32,0,0,1,4.73.64,27.65,27.65,0,0,1,7.72,2.93,27.14,27.14,0,0,1,6.33,4.95,5.14,5.14,0,0,1,.66.74l.64.76A18.27,18.27,0,0,1,110.26,28l.56.81.49.87a16.19,16.19,0,0,1,.94,1.74,26.85,26.85,0,0,1,2.34,15.51c-.12.66-.19,1.34-.35,2l-.5,2a39.13,39.13,0,0,1-1.45,3.9,31.61,31.61,0,0,1-2.6,4.62.65.65,0,0,0,.92.89,22.88,22.88,0,0,0,4.08-4,30,30,0,0,0,2.52-4l1-2.17a8.91,8.91,0,0,0,.4-1.13l.35-1.14A26,26,0,0,0,117.08,29a27.17,27.17,0,0,0-5.82-7.71c-.61-.53-1.21-1.06-1.84-1.56l-2-1.35a8.25,8.25,0,0,0-1-.6l-1.06-.56a18.35,18.35,0,0,0-2.16-1A24.39,24.39,0,0,0,88.88,15.07Z" transform="translate(0 0)"/><path class="cls-1" d="M80.49,29.37a.5.5,0,0,0,.06,1,19,19,0,0,1,2.51.38,17.93,17.93,0,0,1,5,1.91,17.62,17.62,0,0,1,4.13,3.23,3.28,3.28,0,0,1,.43.48l.42.5a11,11,0,0,1,.77,1l.37.53.32.57a10.28,10.28,0,0,1,.61,1.13,17.48,17.48,0,0,1,1.53,10.12c-.08.43-.12.88-.23,1.31l-.33,1.29a25.32,25.32,0,0,1-.94,2.55A20.51,20.51,0,0,1,93.76,58a.51.51,0,0,0,.73.68,14.91,14.91,0,0,0,2.25-2.31,17.78,17.78,0,0,0,1.65-2.59L99,52.34a4.52,4.52,0,0,0,.26-.73l.23-.75A16.93,16.93,0,0,0,98.3,38.57a17.63,17.63,0,0,0-3.79-5c-.4-.34-.79-.69-1.2-1L92,31.64a4.6,4.6,0,0,0-.68-.39l-.69-.37a12.79,12.79,0,0,0-1.41-.65A16,16,0,0,0,80.49,29.37Z" transform="translate(0 0)"/><path class="cls-1" d="M82.66,40.32a16,16,0,0,0-11-4.66h-.79a16.09,16.09,0,0,0-15.7,16.08,16.05,16.05,0,0,0,4.94,11.6,16.1,16.1,0,0,0,22.5-23Z" transform="translate(0 0)"/><path class="cls-1" d="M97.54,76.69A60.11,60.11,0,0,1,82.92,74.9a1.26,1.26,0,0,0-1.55,1l-8.81,44a1.25,1.25,0,0,1-2.46,0l-8.82-44a1.25,1.25,0,0,0-1.54-1,60.07,60.07,0,0,1-14.6,1.78,57.4,57.4,0,0,1-29.35-7.82,1.25,1.25,0,0,0-1.67,1.8l56.19,77.86a1.25,1.25,0,0,0,2,0l56.18-77.84a1.25,1.25,0,0,0-1.67-1.8A57.42,57.42,0,0,1,97.54,76.69Z" transform="translate(0 0)"/><path class="cls-2" d="M200.86,71.42l-8.5,29.73a.86.86,0,0,1-.82.61h-7.35a.84.84,0,0,1-.81-.61L175,71.56a.85.85,0,0,0-1.66.23v29.13a.85.85,0,0,1-.85.84h-8.43a.85.85,0,0,1-.85-.84V49.56a.85.85,0,0,1,.85-.85h13.69a.86.86,0,0,1,.82.63L187,79.85a.84.84,0,0,0,1.63,0l8.49-30.52a.86.86,0,0,1,.82-.62H211.8a.85.85,0,0,1,.84.85v51.36a.85.85,0,0,1-.84.84h-8.43a.85.85,0,0,1-.85-.84V71.65A.85.85,0,0,0,200.86,71.42Z" transform="translate(0 0)"/><path class="cls-2" d="M220.32,48h8.57a.85.85,0,0,1,.85.85v8a.85.85,0,0,1-.85.85h-8.57a.85.85,0,0,1-.85-.85v-8A.85.85,0,0,1,220.32,48Zm0,15.12h8.79A.85.85,0,0,1,230,64v37a.85.85,0,0,1-.85.84h-8.79a.85.85,0,0,1-.85-.84V64A.85.85,0,0,1,220.32,63.12Z" transform="translate(0 0)"/><path class="cls-2" d="M250.42,101.76a19.49,19.49,0,0,1-8-1.71,14.35,14.35,0,0,1-3.74-2.53,25.76,25.76,0,0,1-3.1-3.49.86.86,0,0,1,.17-1.19l5.81-4.37a.85.85,0,0,1,1.2.19,12.84,12.84,0,0,0,1,1.34,16.57,16.57,0,0,0,1.93,1.82A9.77,9.77,0,0,0,248,93.14a6.67,6.67,0,0,0,2.56.5,7.57,7.57,0,0,0,1.61-.18,5.24,5.24,0,0,0,1.49-.57,3.35,3.35,0,0,0,1.11-1,2.81,2.81,0,0,0,.43-1.57A2.5,2.5,0,0,0,253.77,88a22.24,22.24,0,0,0-2.39-1.14c-1-.43-2.27-.93-3.74-1.5a30.07,30.07,0,0,1-7.49-4q-3.5-2.64-3.49-8.2a10.79,10.79,0,0,1,1.07-4.92,10.94,10.94,0,0,1,2.85-3.6,12.43,12.43,0,0,1,4.17-2.21,16.47,16.47,0,0,1,5-.75,18.43,18.43,0,0,1,7.84,1.53,19.67,19.67,0,0,1,5.75,4.32.84.84,0,0,1-.06,1.21l-5.49,4.8a.84.84,0,0,1-1.16,0,23.21,23.21,0,0,0-2.5-2.29,6,6,0,0,0-3.81-1.39,7.89,7.89,0,0,0-2.86.53,2.22,2.22,0,0,0-1.35,2.32A2.8,2.8,0,0,0,247.78,75a20.74,20.74,0,0,0,3.71,1.64q1.92.65,3.81,1.32a23.5,23.5,0,0,1,3.64,1.68,11.87,11.87,0,0,1,3.1,2.57,12.65,12.65,0,0,1,2.64,8.2,10.1,10.1,0,0,1-4.06,8.27A16.13,16.13,0,0,1,250.42,101.76Z" transform="translate(0 0)"/><path class="cls-2" d="M282.08,101.76a19.49,19.49,0,0,1-8-1.71,14.35,14.35,0,0,1-3.74-2.53,25.76,25.76,0,0,1-3.1-3.49.86.86,0,0,1,.17-1.19l5.8-4.37a.85.85,0,0,1,1.2.19A14.47,14.47,0,0,0,275.48,90a15.81,15.81,0,0,0,1.93,1.82,9.5,9.5,0,0,0,2.24,1.32,6.72,6.72,0,0,0,2.57.5,7.41,7.41,0,0,0,1.6-.18,5.19,5.19,0,0,0,1.5-.57,3.35,3.35,0,0,0,1.11-1,2.81,2.81,0,0,0,.42-1.57A2.49,2.49,0,0,0,285.43,88,22.24,22.24,0,0,0,283,86.86c-1-.43-2.27-.93-3.74-1.5a30.07,30.07,0,0,1-7.49-4q-3.49-2.64-3.5-8.2a10.92,10.92,0,0,1,1.07-4.92,11.1,11.1,0,0,1,2.86-3.6,12.24,12.24,0,0,1,4.17-2.21,16.4,16.4,0,0,1,4.95-.75,18.47,18.47,0,0,1,7.85,1.53A19.67,19.67,0,0,1,295,67.54a.85.85,0,0,1-.06,1.21l-5.49,4.8a.85.85,0,0,1-1.17,0,22.17,22.17,0,0,0-2.49-2.29,6,6,0,0,0-3.82-1.39,7.8,7.8,0,0,0-2.85.53,2.22,2.22,0,0,0-1.35,2.32A2.8,2.8,0,0,0,279.44,75a20.43,20.43,0,0,0,3.71,1.64q1.92.65,3.81,1.32a23.5,23.5,0,0,1,3.64,1.68,12,12,0,0,1,3.1,2.57,12.65,12.65,0,0,1,2.64,8.2,10.08,10.08,0,0,1-4.07,8.27Q288.36,101.76,282.08,101.76Z" transform="translate(0 0)"/><path class="cls-2" d="M303.46,48H312a.85.85,0,0,1,.85.85v8a.85.85,0,0,1-.85.85h-8.57a.85.85,0,0,1-.85-.85v-8A.85.85,0,0,1,303.46,48Zm0,15.12h8.78a.85.85,0,0,1,.85.84v37a.85.85,0,0,1-.85.84h-8.78a.85.85,0,0,1-.85-.84V64A.85.85,0,0,1,303.46,63.12Z" transform="translate(0 0)"/><path class="cls-2" d="M335.59,101.76a15.15,15.15,0,0,1-12.36-5.56q-4.58-5.49-4.58-14.47t4.58-14.48a15.18,15.18,0,0,1,12.36-5.56A15.4,15.4,0,0,1,348,67.25q4.58,5.49,4.57,14.48T348,96.2A15.37,15.37,0,0,1,335.59,101.76Zm0-31.23a5,5,0,0,0-3.48,1.17,7.55,7.55,0,0,0-1.95,2.85,12.86,12.86,0,0,0-.85,3.62c-.12,1.29-.17,2.48-.17,3.56s.05,2.26.17,3.55a13,13,0,0,0,.85,3.63,7.55,7.55,0,0,0,1.95,2.85,5,5,0,0,0,3.48,1.16,5.23,5.23,0,0,0,3.51-1.12,7.22,7.22,0,0,0,2-2.82,12.72,12.72,0,0,0,.85-3.66c.12-1.32.18-2.51.18-3.59q0-5.64-1.63-8.52A5.17,5.17,0,0,0,335.59,70.53Z" transform="translate(0 0)"/><path class="cls-2" d="M378.76,77.49a14.73,14.73,0,0,0-.25-3,9.11,9.11,0,0,0-.6-2,3,3,0,0,0-2.83-1.27,9.08,9.08,0,0,0-4.08.92,11.68,11.68,0,0,0-3.11,2.23.86.86,0,0,0-.25.61v25.91a.85.85,0,0,1-.85.84H358a.85.85,0,0,1-.84-.84V64a.85.85,0,0,1,.84-.84h8a.85.85,0,0,1,.85.84v.78a.84.84,0,0,0,1.29.71A24.07,24.07,0,0,1,372,63.51a15,15,0,0,1,5.72-1.11,12.17,12.17,0,0,1,5.25,1,9.87,9.87,0,0,1,3.57,2.81,12,12,0,0,1,2.07,4.25,19.29,19.29,0,0,1,.68,5.24v25.18a.85.85,0,0,1-.84.84h-8.79a.85.85,0,0,1-.85-.84Z" transform="translate(0 0)"/><path class="cls-2" d="M415.77,101.76a20.59,20.59,0,0,1-10.11-2.28,18.36,18.36,0,0,1-6.61-6.09,26.82,26.82,0,0,1-3.58-8.7,47.76,47.76,0,0,1,0-20.29,26,26,0,0,1,3.62-8.73,18.48,18.48,0,0,1,6.64-6.1,20.59,20.59,0,0,1,10.11-2.28,21.74,21.74,0,0,1,11.41,3,13.07,13.07,0,0,1,4.31,4.32,27.68,27.68,0,0,1,2.91,6.62.85.85,0,0,1-.61,1.08l-8.81,2.11a.86.86,0,0,1-1-.53,14.72,14.72,0,0,0-2.87-4.72A7.47,7.47,0,0,0,415.48,57a7.63,7.63,0,0,0-3.74.89,8.27,8.27,0,0,0-2.68,2.38,13.36,13.36,0,0,0-1.74,3.34,24,24,0,0,0-1,3.85,33,33,0,0,0-.46,3.91c-.07,1.3-.11,2.47-.11,3.53q0,8.55,2.5,12.93,2.28,4.25,7.56,4.25a9.75,9.75,0,0,0,3.53-.57,7.65,7.65,0,0,0,2.53-1.61,12,12,0,0,0,1.92-2.46,27.74,27.74,0,0,0,1.34-2.5.86.86,0,0,1,1-.46l9.09,2.36a.85.85,0,0,1,.57,1.14,30,30,0,0,1-3.1,5.85,18.12,18.12,0,0,1-4.39,4.43C425,100.59,420.8,101.76,415.77,101.76Z" transform="translate(0 0)"/><path class="cls-2" d="M442.14,48h8.57a.85.85,0,0,1,.85.85v8a.85.85,0,0,1-.85.85h-8.57a.85.85,0,0,1-.85-.85v-8A.85.85,0,0,1,442.14,48Zm0,15.12h8.79a.85.85,0,0,1,.84.84v37a.85.85,0,0,1-.84.84h-8.79a.85.85,0,0,1-.85-.84V64A.85.85,0,0,1,442.14,63.12Z" transform="translate(0 0)"/><path class="cls-2" d="M473.81,101.73c-.72,0-1.5,0-2.36,0a10.79,10.79,0,0,1-7.18-2.23q-2.65-2.23-2.66-6.92V72.09a.84.84,0,0,0-.84-.84h-3.44a.85.85,0,0,1-.85-.85V63.25a.85.85,0,0,1,.85-.85h3.44a.83.83,0,0,0,.84-.84V51a.85.85,0,0,1,.85-.85h8.79a.85.85,0,0,1,.85.85V61.56a.83.83,0,0,0,.84.84h5.58a.85.85,0,0,1,.85.85V70.4a.85.85,0,0,1-.85.85h-5.58a.84.84,0,0,0-.84.84v19.2c0,.81.21,1.3.64,1.49a4.26,4.26,0,0,0,1.71.28,9.63,9.63,0,0,0,2.35-.28l1.52-.38a.85.85,0,0,1,1.05.82v7.15a.86.86,0,0,1-.68.83c-.53.11-1,.19-1.39.24l-1.64.18C475.14,101.67,474.52,101.7,473.81,101.73Z" transform="translate(0 0)"/><path class="cls-2" d="M485.71,48h8.57a.85.85,0,0,1,.85.85v8a.85.85,0,0,1-.85.85h-8.57a.85.85,0,0,1-.85-.85v-8A.85.85,0,0,1,485.71,48Zm0,15.12h8.78a.85.85,0,0,1,.85.84v37a.85.85,0,0,1-.85.84h-8.78a.85.85,0,0,1-.85-.84V64A.85.85,0,0,1,485.71,63.12Z" transform="translate(0 0)"/><path class="cls-2" d="M500.65,94.23l15.9-20.91a.84.84,0,0,0-.67-1.36h-13.2a.83.83,0,0,1-.84-.85l.05-7.15a.85.85,0,0,1,.85-.84h27.4A.85.85,0,0,1,531,64v6.25a.82.82,0,0,1-.17.51L515,91.56a.85.85,0,0,0,.68,1.36h14.7a.85.85,0,0,1,.85.85v7.15a.85.85,0,0,1-.85.84h-29a.85.85,0,0,1-.85-.84V94.74A.78.78,0,0,1,500.65,94.23Z" transform="translate(0 0)"/><path class="cls-2" d="M550.11,101.76a15.73,15.73,0,0,1-7.48-1.67,14.71,14.71,0,0,1-5.14-4.46,19.59,19.59,0,0,1-3-6.38,29.08,29.08,0,0,1-1-7.52,29.76,29.76,0,0,1,1-7.63,18.48,18.48,0,0,1,3-6.38,15.28,15.28,0,0,1,5.25-4.39,16.35,16.35,0,0,1,7.59-1.64,14.38,14.38,0,0,1,11.19,4.92,20.49,20.49,0,0,1,3.46,5.49A17.18,17.18,0,0,1,566.37,79v4.14a.85.85,0,0,1-.85.85H545a.85.85,0,0,0-.84,1c.12.79.25,1.57.41,2.34a8.94,8.94,0,0,0,1.07,2.87,5.67,5.67,0,0,0,2,2,6.64,6.64,0,0,0,3.42.77,7.5,7.5,0,0,0,4.53-1.32,15.85,15.85,0,0,0,2.91-2.79.86.86,0,0,1,1.12-.19l6.32,4a.85.85,0,0,1,.25,1.19,22.2,22.2,0,0,1-3,3.52,15,15,0,0,1-3.75,2.57A20.75,20.75,0,0,1,550.11,101.76Zm.22-31.94a6.73,6.73,0,0,0-2.75.5,4.94,4.94,0,0,0-1.82,1.39,6.66,6.66,0,0,0-1.1,2.1,14.27,14.27,0,0,0-.41,1.53.85.85,0,0,0,.83,1h10.57a.86.86,0,0,0,.84-1,7.41,7.41,0,0,0-1.67-3.72A5.7,5.7,0,0,0,550.33,69.82Z" transform="translate(0 0)"/><path class="cls-2" d="M593,77.49a15.59,15.59,0,0,0-.24-3,9.64,9.64,0,0,0-.61-2,3,3,0,0,0-2.83-1.27,9,9,0,0,0-4.07.92,11.73,11.73,0,0,0-3.12,2.23.86.86,0,0,0-.25.61v25.91a.85.85,0,0,1-.84.84h-8.79a.85.85,0,0,1-.85-.84V64a.85.85,0,0,1,.85-.84h8a.85.85,0,0,1,.85.84v.78a.85.85,0,0,0,1.3.71,23.54,23.54,0,0,1,3.77-1.94,15,15,0,0,1,5.72-1.11,12.13,12.13,0,0,1,5.25,1,9.87,9.87,0,0,1,3.57,2.81,12.14,12.14,0,0,1,2.08,4.25,19.69,19.69,0,0,1,.68,5.24v25.18a.85.85,0,0,1-.85.84h-8.79a.85.85,0,0,1-.85-.84Z" transform="translate(0 0)"/></g></g></svg>