<svg xmlns="http://www.w3.org/2000/svg" viewBox="0 0 142.64 149.05"><defs><style>.cls-1{fill:#f3b709;}</style></defs><g id="Layer_2" data-name="Layer 2"><g id="Layer_3" data-name="Layer 3"><path class="cls-1" d="M43.34,1.3a.44.44,0,0,1-.12.87,41.44,41.44,0,0,0-9,1.17A37.35,37.35,0,0,0,24,7.53a36.36,36.36,0,0,0-8.29,6.84,9.27,9.27,0,0,0-.87,1l-.82,1a20.23,20.23,0,0,0-1.53,2.17l-.73,1.11-.63,1.17a23.69,23.69,0,0,0-1.19,2.36A35.87,35.87,0,0,0,7.34,44.08c.18.88.3,1.78.54,2.66l.74,2.64a52.48,52.48,0,0,0,2.08,5.16,43.6,43.6,0,0,0,5,8,.45.45,0,0,1-.58.66,29.32,29.32,0,0,1-7.61-6.56A40.07,40.07,0,0,1,4,51.39L2.65,48.52A13.59,13.59,0,0,1,2.08,47l-.52-1.51A34.8,34.8,0,0,1,3.39,20.22a36.23,36.23,0,0,1,7.5-10.51c.8-.73,1.59-1.46,2.42-2.15l2.61-1.89a12,12,0,0,1,1.37-.84l1.4-.78a25.29,25.29,0,0,1,2.86-1.41A32.25,32.25,0,0,1,43.34,1.3Z"/><path class="cls-1" d="M53.76,15.07a.65.65,0,0,1-.12,1.27,31.73,31.73,0,0,0-4.72.64,27.65,27.65,0,0,0-7.72,2.93,26.93,26.93,0,0,0-6.33,4.95,5.89,5.89,0,0,0-.67.74l-.63.76A16.45,16.45,0,0,0,32.38,28l-.57.81-.49.87a16.12,16.12,0,0,0-.93,1.74A26.78,26.78,0,0,0,28,46.88c.12.66.19,1.34.36,2l.49,2a39.22,39.22,0,0,0,1.46,3.9,30.64,30.64,0,0,0,2.59,4.62.65.65,0,0,1-.91.89,22.23,22.23,0,0,1-4.08-4,29.06,29.06,0,0,1-2.53-4l-1-2.17A10.75,10.75,0,0,1,24.06,49l-.36-1.14A26,26,0,0,1,25.56,29a27,27,0,0,1,5.81-7.71c.61-.53,1.22-1.06,1.85-1.56l2-1.35a9,9,0,0,1,1-.6l1.06-.56a19.27,19.27,0,0,1,2.17-1A24.39,24.39,0,0,1,53.76,15.07Z"/><path class="cls-1" d="M62.14,29.37a.5.5,0,0,1,0,1,18.74,18.74,0,0,0-2.51.38,17.7,17.7,0,0,0-5,1.91,17.42,17.42,0,0,0-4.13,3.23,4,4,0,0,0-.44.48l-.41.5a11.14,11.14,0,0,0-.78,1l-.37.53L48.1,39a10.28,10.28,0,0,0-.61,1.13A17.56,17.56,0,0,0,46,50.24c.08.43.13.88.23,1.31l.33,1.29a25.41,25.41,0,0,0,1,2.55A19.32,19.32,0,0,0,48.88,58a.51.51,0,0,1-.74.68,15.37,15.37,0,0,1-2.25-2.31,19.64,19.64,0,0,1-1.65-2.59l-.63-1.42a5.7,5.7,0,0,1-.25-.73l-.24-.75a17,17,0,0,1,1.21-12.29,17.66,17.66,0,0,1,3.8-5c.39-.34.79-.69,1.2-1l1.3-.88a4.6,4.6,0,0,1,.68-.39l.69-.37a12,12,0,0,1,1.41-.65A16,16,0,0,1,62.14,29.37Z"/><path class="cls-1" d="M99.3,1.3a.44.44,0,0,0,.12.87,41.52,41.52,0,0,1,9,1.17,37.16,37.16,0,0,1,10.23,4.19,36.2,36.2,0,0,1,8.3,6.84,9.18,9.18,0,0,1,.86,1l.83,1a23.53,23.53,0,0,1,1.53,2.17l.73,1.11.62,1.17a23.69,23.69,0,0,1,1.19,2.36,36,36,0,0,1,2.6,20.84c-.19.88-.3,1.78-.55,2.66L134,49.38a52.58,52.58,0,0,1-2.09,5.16,43.07,43.07,0,0,1-5,8,.45.45,0,0,0,.58.66,29.16,29.16,0,0,0,7.61-6.56,39.15,39.15,0,0,0,3.53-5.22L140,48.52a11.79,11.79,0,0,0,.56-1.5l.52-1.51a34.8,34.8,0,0,0-1.82-25.29,36.26,36.26,0,0,0-7.51-10.51c-.8-.73-1.59-1.46-2.41-2.15l-2.62-1.89a11.15,11.15,0,0,0-1.37-.84L124,4.05a26.15,26.15,0,0,0-2.86-1.41A32.25,32.25,0,0,0,99.3,1.3Z"/><path class="cls-1" d="M88.88,15.07A.65.65,0,0,0,89,16.34a32,32,0,0,1,4.73.64,27.65,27.65,0,0,1,7.72,2.93,27.14,27.14,0,0,1,6.33,4.95,5.14,5.14,0,0,1,.66.74l.64.76A18.27,18.27,0,0,1,110.26,28l.56.81.49.87a16.19,16.19,0,0,1,.94,1.74,26.85,26.85,0,0,1,2.34,15.51c-.12.66-.19,1.34-.35,2l-.5,2a39.13,39.13,0,0,1-1.45,3.9,31.61,31.61,0,0,1-2.6,4.62.65.65,0,0,0,.92.89,22.88,22.88,0,0,0,4.08-4,30,30,0,0,0,2.52-4l1-2.17a8.91,8.91,0,0,0,.4-1.13l.35-1.14A26,26,0,0,0,117.08,29a27.17,27.17,0,0,0-5.82-7.71c-.61-.53-1.21-1.06-1.84-1.56l-2-1.35a8.25,8.25,0,0,0-1-.6l-1.06-.56a18.35,18.35,0,0,0-2.16-1A24.39,24.39,0,0,0,88.88,15.07Z"/><path class="cls-1" d="M80.49,29.37a.5.5,0,0,0,.06,1,19,19,0,0,1,2.51.38,17.93,17.93,0,0,1,5,1.91,17.62,17.62,0,0,1,4.13,3.23,3.28,3.28,0,0,1,.43.48l.42.5a11,11,0,0,1,.77,1l.37.53.32.57a10.28,10.28,0,0,1,.61,1.13,17.48,17.48,0,0,1,1.53,10.12c-.08.43-.12.88-.23,1.31l-.33,1.29a25.32,25.32,0,0,1-.94,2.55A20.51,20.51,0,0,1,93.76,58a.51.51,0,0,0,.73.68,14.91,14.91,0,0,0,2.25-2.31,17.78,17.78,0,0,0,1.65-2.59L99,52.34a4.52,4.52,0,0,0,.26-.73l.23-.75A16.93,16.93,0,0,0,98.3,38.57a17.63,17.63,0,0,0-3.79-5c-.4-.34-.79-.69-1.2-1L92,31.64a4.6,4.6,0,0,0-.68-.39l-.69-.37a12.79,12.79,0,0,0-1.41-.65A16,16,0,0,0,80.49,29.37Z"/><path class="cls-1" d="M82.66,40.32a16,16,0,0,0-11-4.66h-.79a16.09,16.09,0,0,0-15.7,16.08,16.05,16.05,0,0,0,4.94,11.6,16.1,16.1,0,0,0,22.5-23Z"/><path class="cls-1" d="M97.54,76.69A60.11,60.11,0,0,1,82.92,74.9a1.26,1.26,0,0,0-1.55,1l-8.81,44a1.25,1.25,0,0,1-2.46,0l-8.82-44a1.25,1.25,0,0,0-1.54-1,60.07,60.07,0,0,1-14.6,1.78,57.4,57.4,0,0,1-29.35-7.82,1.25,1.25,0,0,0-1.67,1.8l56.19,77.86a1.25,1.25,0,0,0,2,0l56.18-77.84a1.25,1.25,0,0,0-1.67-1.8A57.42,57.42,0,0,1,97.54,76.69Z"/></g></g></svg>