<svg xmlns="http://www.w3.org/2000/svg" viewBox="0 0 651.84 242.44"><defs><style>.cls-1{fill:#328476;}.cls-2{fill:#e85581;}</style></defs><g id="Layer_2" data-name="Layer 2"><g id="Layer_3" data-name="Layer 3"><path class="cls-1" d="M297.94,1.3a.44.44,0,0,1-.12.87,41.44,41.44,0,0,0-9,1.17A37.16,37.16,0,0,0,278.6,7.53a36.2,36.2,0,0,0-8.3,6.84,9.18,9.18,0,0,0-.86,1l-.83,1a23.53,23.53,0,0,0-1.53,2.17l-.73,1.11-.62,1.17a21.72,21.72,0,0,0-1.19,2.36,36,36,0,0,0-2.6,20.84c.19.88.3,1.78.54,2.66l.74,2.64a55.08,55.08,0,0,0,2.08,5.16,43.66,43.66,0,0,0,5,8,.45.45,0,0,1-.58.66,29.16,29.16,0,0,1-7.61-6.56,39.15,39.15,0,0,1-3.53-5.22l-1.37-2.87a11.79,11.79,0,0,1-.56-1.5l-.52-1.51A34.8,34.8,0,0,1,258,20.22,36.08,36.08,0,0,1,265.5,9.71c.8-.73,1.59-1.46,2.41-2.15l2.61-1.89a12.89,12.89,0,0,1,1.37-.84l1.4-.78a26.15,26.15,0,0,1,2.86-1.41A32.25,32.25,0,0,1,297.94,1.3Z"/><path class="cls-1" d="M308.36,15.07a.65.65,0,0,1-.11,1.27,31.86,31.86,0,0,0-4.73.64,27.65,27.65,0,0,0-7.72,2.93,26.93,26.93,0,0,0-6.33,4.95,5.89,5.89,0,0,0-.67.74l-.63.76A18.27,18.27,0,0,0,287,28l-.57.81-.48.87a16.19,16.19,0,0,0-.94,1.74,26.86,26.86,0,0,0-2.35,15.51c.13.66.19,1.34.36,2l.5,2a39.13,39.13,0,0,0,1.45,3.9,32.49,32.49,0,0,0,2.59,4.62.65.65,0,0,1-.91.89,22.88,22.88,0,0,1-4.08-4,30,30,0,0,1-2.53-4l-1-2.17a8.91,8.91,0,0,1-.4-1.13l-.35-1.14A26,26,0,0,1,280.16,29,27.14,27.14,0,0,1,286,21.28c.61-.53,1.22-1.06,1.85-1.56l2-1.35a8.25,8.25,0,0,1,1-.6l1.06-.56a18.35,18.35,0,0,1,2.16-1A24.39,24.39,0,0,1,308.36,15.07Z"/><path class="cls-1" d="M316.75,29.37a.5.5,0,0,1-.06,1,19,19,0,0,0-2.51.38,17.81,17.81,0,0,0-5,1.91A17.62,17.62,0,0,0,305,35.88a3.28,3.28,0,0,0-.43.48l-.42.5a9.51,9.51,0,0,0-.77,1l-.37.53-.32.57a10.28,10.28,0,0,0-.61,1.13,17.48,17.48,0,0,0-1.53,10.12c.08.43.12.88.23,1.31l.32,1.29c.3.84.56,1.72.95,2.55A20.51,20.51,0,0,0,303.48,58a.51.51,0,0,1-.73.68,14.91,14.91,0,0,1-2.25-2.31,17.78,17.78,0,0,1-1.65-2.59l-.63-1.42a4.52,4.52,0,0,1-.26-.73l-.23-.75a16.93,16.93,0,0,1,1.21-12.29,17.63,17.63,0,0,1,3.79-5c.4-.34.79-.69,1.2-1l1.3-.88a4.6,4.6,0,0,1,.68-.39l.69-.37a12,12,0,0,1,1.41-.65A16,16,0,0,1,316.75,29.37Z"/><path class="cls-1" d="M353.9,1.3a.44.44,0,0,0,.12.87,41.44,41.44,0,0,1,9,1.17,37.16,37.16,0,0,1,10.23,4.19,36.2,36.2,0,0,1,8.3,6.84,9.27,9.27,0,0,1,.87,1l.82,1a21.75,21.75,0,0,1,1.53,2.17l.73,1.11.62,1.17a20.06,20.06,0,0,1,1.19,2.36,35.79,35.79,0,0,1,2.6,20.84c-.19.88-.3,1.78-.54,2.66l-.74,2.64a52.48,52.48,0,0,1-2.08,5.16,44.15,44.15,0,0,1-5,8,.44.44,0,0,0,.57.66,29.37,29.37,0,0,0,7.62-6.56,40.07,40.07,0,0,0,3.52-5.22l1.37-2.87a13.59,13.59,0,0,0,.57-1.5l.52-1.51a34.8,34.8,0,0,0-1.83-25.29,36.23,36.23,0,0,0-7.5-10.51c-.8-.73-1.59-1.46-2.42-2.15l-2.61-1.89A12,12,0,0,0,380,4.83l-1.4-.78a25.29,25.29,0,0,0-2.86-1.41A32.25,32.25,0,0,0,353.9,1.3Z"/><path class="cls-1" d="M343.48,15.07a.65.65,0,0,0,.12,1.27,31.73,31.73,0,0,1,4.72.64A27.65,27.65,0,0,1,356,19.91a26.93,26.93,0,0,1,6.33,4.95,5.89,5.89,0,0,1,.67.74l.63.76A16.45,16.45,0,0,1,364.86,28l.57.81.48.87a16.19,16.19,0,0,1,.94,1.74,26.86,26.86,0,0,1,2.35,15.51c-.13.66-.19,1.34-.36,2l-.5,2a39.13,39.13,0,0,1-1.45,3.9,32.49,32.49,0,0,1-2.59,4.62.65.65,0,0,0,.91.89,22.55,22.55,0,0,0,4.08-4,29.06,29.06,0,0,0,2.53-4l1-2.17a8.91,8.91,0,0,0,.4-1.13l.36-1.14A26,26,0,0,0,371.68,29a27,27,0,0,0-5.81-7.71c-.61-.53-1.22-1.06-1.85-1.56l-2-1.35a8.25,8.25,0,0,0-1-.6l-1.05-.56a19.27,19.27,0,0,0-2.17-1A24.39,24.39,0,0,0,343.48,15.07Z"/><path class="cls-1" d="M335.1,29.37a.5.5,0,0,0,0,1,18.74,18.74,0,0,1,2.51.38,17.81,17.81,0,0,1,5,1.91,17.42,17.42,0,0,1,4.13,3.23,4,4,0,0,1,.44.48l.41.5a9.51,9.51,0,0,1,.77,1l.38.53.31.57a10.28,10.28,0,0,1,.61,1.13,17.48,17.48,0,0,1,1.53,10.12c-.08.43-.12.88-.23,1.31l-.32,1.29c-.3.84-.56,1.72-1,2.55A20.51,20.51,0,0,1,348.36,58a.51.51,0,0,0,.74.68,15.37,15.37,0,0,0,2.25-2.31A18.6,18.6,0,0,0,353,53.76l.64-1.42a5.7,5.7,0,0,0,.25-.73l.24-.75a16.93,16.93,0,0,0-1.22-12.29,17.45,17.45,0,0,0-3.79-5c-.4-.34-.79-.69-1.2-1l-1.3-.88a4.6,4.6,0,0,0-.68-.39l-.69-.37a12,12,0,0,0-1.41-.65A16,16,0,0,0,335.1,29.37Z"/><path class="cls-1" d="M337.26,40.32a16,16,0,0,0-10.95-4.66h-.79a16.07,16.07,0,1,0,11.74,4.66Z"/><path class="cls-1" d="M352.14,76.69a60.17,60.17,0,0,1-14.62-1.79,1.25,1.25,0,0,0-1.54,1l-8.82,44a1.25,1.25,0,0,1-2.46,0l-8.82-44a1.24,1.24,0,0,0-1.54-1,60,60,0,0,1-14.6,1.78,57.45,57.45,0,0,1-29.35-7.82,1.25,1.25,0,0,0-1.67,1.8l56.19,77.86a1.26,1.26,0,0,0,2,0l56.17-77.84a1.25,1.25,0,0,0-1.67-1.8A57.36,57.36,0,0,1,352.14,76.69Z"/><path class="cls-2" d="M55.71,197.52l-12.59,44a1.24,1.24,0,0,1-1.2.91H31a1.25,1.25,0,0,1-1.21-.91l-12.38-43.8a1.25,1.25,0,0,0-2.46.34v43.12a1.25,1.25,0,0,1-1.25,1.25H1.25A1.25,1.25,0,0,1,0,241.19v-76a1.25,1.25,0,0,1,1.25-1.25H21.53a1.24,1.24,0,0,1,1.21.92L35.22,210a1.25,1.25,0,0,0,2.41,0l12.58-45.18a1.24,1.24,0,0,1,1.21-.92H71.91a1.25,1.25,0,0,1,1.25,1.25v76a1.25,1.25,0,0,1-1.25,1.25H59.42a1.25,1.25,0,0,1-1.25-1.25V197.86A1.25,1.25,0,0,0,55.71,197.52Z"/><path class="cls-2" d="M84.53,162.84H97.22a1.25,1.25,0,0,1,1.26,1.26V176a1.25,1.25,0,0,1-1.26,1.25H84.53A1.26,1.26,0,0,1,83.27,176V164.1A1.26,1.26,0,0,1,84.53,162.84Zm0,22.38h13a1.25,1.25,0,0,1,1.25,1.26v54.71a1.25,1.25,0,0,1-1.25,1.25h-13a1.26,1.26,0,0,1-1.26-1.25V186.48A1.26,1.26,0,0,1,84.53,185.22Z"/><path class="cls-2" d="M129.09,242.44a28.78,28.78,0,0,1-11.82-2.53,21.85,21.85,0,0,1-5.54-3.75,38,38,0,0,1-4.59-5.17,1.25,1.25,0,0,1,.25-1.75l8.6-6.47a1.24,1.24,0,0,1,1.77.28,20.22,20.22,0,0,0,1.57,2,21.9,21.9,0,0,0,2.85,2.69,13.57,13.57,0,0,0,3.32,2,9.93,9.93,0,0,0,3.8.74,10.93,10.93,0,0,0,2.38-.27,7.4,7.4,0,0,0,2.22-.84,5,5,0,0,0,1.63-1.53,4.14,4.14,0,0,0,.64-2.33,3.66,3.66,0,0,0-2.12-3.37,29.23,29.23,0,0,0-3.53-1.69c-1.52-.64-3.36-1.38-5.55-2.22a45.48,45.48,0,0,1-11.08-5.91q-5.17-3.9-5.17-12.14a15.76,15.76,0,0,1,5.8-12.62,18.28,18.28,0,0,1,6.18-3.27,24.36,24.36,0,0,1,7.34-1.11,27.29,27.29,0,0,1,11.61,2.27,29,29,0,0,1,8.52,6.39,1.26,1.26,0,0,1-.1,1.8l-8.12,7.1a1.26,1.26,0,0,1-1.73-.08,33.89,33.89,0,0,0-3.69-3.39,8.9,8.9,0,0,0-5.65-2,11.3,11.3,0,0,0-4.22.79c-1.34.53-2,1.67-2,3.43q0,2,2.54,3.48a30.89,30.89,0,0,0,5.49,2.43c1.9.63,3.78,1.29,5.64,1.95a34.56,34.56,0,0,1,5.39,2.48,17.73,17.73,0,0,1,4.59,3.81,18.75,18.75,0,0,1,3.91,12.14,14.91,14.91,0,0,1-6,12.24Q138.39,242.45,129.09,242.44Z"/><path class="cls-2" d="M176,242.44a28.78,28.78,0,0,1-11.82-2.53,21.85,21.85,0,0,1-5.54-3.75A38.63,38.63,0,0,1,154,231a1.25,1.25,0,0,1,.25-1.75l8.6-6.47a1.24,1.24,0,0,1,1.77.28,20.22,20.22,0,0,0,1.57,2,21.9,21.9,0,0,0,2.85,2.69,13.76,13.76,0,0,0,3.32,2,10,10,0,0,0,3.8.74,10.93,10.93,0,0,0,2.38-.27,7.4,7.4,0,0,0,2.22-.84,5,5,0,0,0,1.63-1.53,4.06,4.06,0,0,0,.64-2.33,3.66,3.66,0,0,0-2.12-3.37,29.23,29.23,0,0,0-3.53-1.69c-1.52-.64-3.36-1.38-5.54-2.22a45.37,45.37,0,0,1-11.09-5.91q-5.17-3.9-5.17-12.14a15.76,15.76,0,0,1,5.8-12.62,18.28,18.28,0,0,1,6.18-3.27,24.36,24.36,0,0,1,7.34-1.11,27.29,27.29,0,0,1,11.61,2.27,29,29,0,0,1,8.52,6.39,1.24,1.24,0,0,1-.1,1.8l-8.12,7.1a1.26,1.26,0,0,1-1.73-.08,33.89,33.89,0,0,0-3.69-3.39,8.9,8.9,0,0,0-5.65-2,11.34,11.34,0,0,0-4.22.79c-1.34.53-2,1.67-2,3.43q0,2,2.54,3.48a31.21,31.21,0,0,0,5.49,2.43c1.9.63,3.78,1.29,5.64,1.95a34.56,34.56,0,0,1,5.39,2.48,17.73,17.73,0,0,1,4.59,3.81,18.75,18.75,0,0,1,3.91,12.14,14.91,14.91,0,0,1-6,12.24Q185.26,242.45,176,242.44Z"/><path class="cls-2" d="M207.62,162.84h12.69a1.25,1.25,0,0,1,1.26,1.26V176a1.25,1.25,0,0,1-1.26,1.25H207.62a1.25,1.25,0,0,1-1.25-1.25V164.1A1.25,1.25,0,0,1,207.62,162.84Zm0,22.38h13a1.25,1.25,0,0,1,1.25,1.26v54.71a1.25,1.25,0,0,1-1.25,1.25h-13a1.25,1.25,0,0,1-1.25-1.25V186.48A1.25,1.25,0,0,1,207.62,185.22Z"/><path class="cls-2" d="M255.19,242.44q-11.53,0-18.3-8.23t-6.77-21.43q0-13.31,6.77-21.43t18.3-8.24q11.54,0,18.41,8.24t6.77,21.43q0,13.29-6.77,21.43T255.19,242.44Zm0-46.24a7.37,7.37,0,0,0-5.14,1.72,11.4,11.4,0,0,0-2.89,4.22,19.16,19.16,0,0,0-1.26,5.37c-.17,1.91-.26,3.67-.26,5.27s.09,3.35.26,5.26a19.16,19.16,0,0,0,1.26,5.37,11.24,11.24,0,0,0,2.89,4.22,7.33,7.33,0,0,0,5.14,1.72,7.73,7.73,0,0,0,5.2-1.67,10.62,10.62,0,0,0,2.94-4.17,19.1,19.1,0,0,0,1.26-5.42c.17-1.94.26-3.72.26-5.31q0-8.34-2.41-12.62Q260.24,196.2,255.19,196.2Z"/><path class="cls-2" d="M319.12,206.5a22.69,22.69,0,0,0-.37-4.41,14.39,14.39,0,0,0-.89-2.94q-1.16-1.89-4.2-1.89a13.47,13.47,0,0,0-6,1.36,17.56,17.56,0,0,0-4.62,3.31,1.27,1.27,0,0,0-.36.89v38.37a1.25,1.25,0,0,1-1.26,1.25h-13a1.25,1.25,0,0,1-1.25-1.25V186.48a1.25,1.25,0,0,1,1.25-1.26h11.88a1.25,1.25,0,0,1,1.26,1.26v1.14a1.24,1.24,0,0,0,1.92,1A36.37,36.37,0,0,1,309,185.8a22.24,22.24,0,0,1,8.46-1.63,18,18,0,0,1,7.78,1.53,14.49,14.49,0,0,1,5.29,4.17,17.63,17.63,0,0,1,3.07,6.28,29,29,0,0,1,1,7.76v37.28a1.25,1.25,0,0,1-1.25,1.25h-13a1.25,1.25,0,0,1-1.25-1.25Z"/><path class="cls-2" d="M373.91,242.44q-8.88,0-15-3.38a27.18,27.18,0,0,1-9.77-9,39.09,39.09,0,0,1-5.3-12.88,70,70,0,0,1,0-30,38.54,38.54,0,0,1,5.35-12.93,27.65,27.65,0,0,1,9.83-9q6.1-3.37,15-3.37a32.13,32.13,0,0,1,16.89,4.37,19.24,19.24,0,0,1,6.39,6.4,41.31,41.31,0,0,1,4.31,9.8,1.26,1.26,0,0,1-.91,1.59l-13,3.13a1.27,1.27,0,0,1-1.46-.79,21.86,21.86,0,0,0-4.26-7q-3-3.17-8.45-3.17a11.21,11.21,0,0,0-5.54,1.33,12.27,12.27,0,0,0-4,3.52,19.66,19.66,0,0,0-2.58,4.95,35.38,35.38,0,0,0-1.54,5.69,46.7,46.7,0,0,0-.68,5.8c-.11,1.92-.16,3.66-.16,5.22q0,12.66,3.69,19.15,3.39,6.28,11.2,6.28a14.42,14.42,0,0,0,5.22-.84,11.06,11.06,0,0,0,3.75-2.38,18,18,0,0,0,2.85-3.64c.68-1.14,1.35-2.37,2-3.7a1.27,1.27,0,0,1,1.45-.68l13.46,3.5a1.26,1.26,0,0,1,.85,1.68,44.31,44.31,0,0,1-4.6,8.66,26.8,26.8,0,0,1-6.49,6.56Q385.09,242.45,373.91,242.44Z"/><path class="cls-2" d="M413,162.84h12.7a1.25,1.25,0,0,1,1.25,1.26V176a1.25,1.25,0,0,1-1.25,1.25H413A1.25,1.25,0,0,1,411.7,176V164.1A1.25,1.25,0,0,1,413,162.84Zm0,22.38h13a1.25,1.25,0,0,1,1.26,1.26v54.71a1.25,1.25,0,0,1-1.26,1.25H413a1.25,1.25,0,0,1-1.25-1.25V186.48A1.25,1.25,0,0,1,413,185.22Z"/><path class="cls-2" d="M459.84,242.39c-1.06,0-2.22.05-3.49.05q-6.71,0-10.63-3.31t-3.93-10.24V198.51a1.25,1.25,0,0,0-1.26-1.25h-5.09a1.25,1.25,0,0,1-1.25-1.26V185.42a1.25,1.25,0,0,1,1.25-1.25h5.09a1.25,1.25,0,0,0,1.26-1.26V167.26A1.25,1.25,0,0,1,443,166h13a1.26,1.26,0,0,1,1.26,1.25v15.65a1.25,1.25,0,0,0,1.25,1.26h8.26a1.25,1.25,0,0,1,1.25,1.25V196a1.25,1.25,0,0,1-1.25,1.26h-8.26a1.25,1.25,0,0,0-1.25,1.25v28.43c0,1.19.31,1.92.95,2.2a6.31,6.31,0,0,0,2.53.42,14.29,14.29,0,0,0,3.48-.42l2.25-.56a1.25,1.25,0,0,1,1.55,1.22v10.58a1.25,1.25,0,0,1-1,1.23c-.77.16-1.45.28-2.05.36-.84.1-1.65.19-2.43.26S460.89,242.35,459.84,242.39Z"/><path class="cls-2" d="M477.46,162.84h12.69a1.25,1.25,0,0,1,1.25,1.26V176a1.25,1.25,0,0,1-1.25,1.25H477.46A1.25,1.25,0,0,1,476.2,176V164.1A1.25,1.25,0,0,1,477.46,162.84Zm0,22.38h13a1.25,1.25,0,0,1,1.25,1.26v54.71a1.25,1.25,0,0,1-1.25,1.25h-13a1.25,1.25,0,0,1-1.26-1.25V186.48A1.25,1.25,0,0,1,477.46,185.22Z"/><path class="cls-2" d="M499.58,231.28l23.55-30.95a1.26,1.26,0,0,0-1-2H502.59a1.25,1.25,0,0,1-1.25-1.26l.08-10.58a1.27,1.27,0,0,1,1.26-1.25h40.57a1.26,1.26,0,0,1,1.26,1.26v9.25a1.25,1.25,0,0,1-.26.76L520.8,227.34a1.26,1.26,0,0,0,1,2h21.77a1.25,1.25,0,0,1,1.25,1.25v10.59a1.25,1.25,0,0,1-1.25,1.25h-43a1.25,1.25,0,0,1-1.26-1.25V232A1.25,1.25,0,0,1,499.58,231.28Z"/><path class="cls-2" d="M572.82,242.44A23.24,23.24,0,0,1,561.74,240a21.82,21.82,0,0,1-7.61-6.6,28.69,28.69,0,0,1-4.38-9.45,42.87,42.87,0,0,1-1.42-11.13,44,44,0,0,1,1.42-11.3,27,27,0,0,1,4.49-9.45,22.5,22.5,0,0,1,7.76-6.49,24.19,24.19,0,0,1,11.24-2.43,21.32,21.32,0,0,1,16.58,7.29,30.52,30.52,0,0,1,5.12,8.12,25.47,25.47,0,0,1,1.95,10.14v6.13a1.25,1.25,0,0,1-1.25,1.26H565.18a1.25,1.25,0,0,0-1.24,1.43c.17,1.17.37,2.32.59,3.45a13.35,13.35,0,0,0,1.59,4.26,8.59,8.59,0,0,0,3,3,9.81,9.81,0,0,0,5.07,1.14,11.15,11.15,0,0,0,6.71-1.95,23.81,23.81,0,0,0,4.31-4.13,1.26,1.26,0,0,1,1.65-.29l9.36,5.9a1.25,1.25,0,0,1,.37,1.76,32.1,32.1,0,0,1-4.4,5.2,21.59,21.59,0,0,1-5.54,3.81A30.81,30.81,0,0,1,572.82,242.44Zm.32-47.29a9.77,9.77,0,0,0-4.07.74,7.08,7.08,0,0,0-2.69,2.05,9.85,9.85,0,0,0-1.64,3.12c-.23.72-.43,1.48-.6,2.25a1.26,1.26,0,0,0,1.22,1.55H581a1.27,1.27,0,0,0,1.25-1.46,10.89,10.89,0,0,0-2.47-5.51A8.43,8.43,0,0,0,573.14,195.15Z"/><path class="cls-2" d="M636.32,206.5a22.78,22.78,0,0,0-.36-4.41,14.34,14.34,0,0,0-.9-2.94c-.77-1.26-2.16-1.89-4.19-1.89a13.47,13.47,0,0,0-6,1.36,17.4,17.4,0,0,0-4.62,3.31,1.24,1.24,0,0,0-.37.89v38.37a1.25,1.25,0,0,1-1.25,1.25h-13a1.25,1.25,0,0,1-1.25-1.25V186.48a1.25,1.25,0,0,1,1.25-1.26h11.88a1.25,1.25,0,0,1,1.25,1.26v1.14a1.25,1.25,0,0,0,1.93,1,36.37,36.37,0,0,1,5.59-2.87,22.24,22.24,0,0,1,8.46-1.63,18.05,18.05,0,0,1,7.78,1.53,14.49,14.49,0,0,1,5.29,4.17,17.8,17.8,0,0,1,3.07,6.28,29,29,0,0,1,1,7.76v37.28a1.25,1.25,0,0,1-1.25,1.25h-13a1.25,1.25,0,0,1-1.26-1.25Z"/></g></g></svg>