<svg xmlns="http://www.w3.org/2000/svg" viewBox="0 0 440.26 213.85"><defs><style>.cls-1{fill:#328476;}.cls-2{fill:#e85581;}</style></defs><g id="Layer_2" data-name="Layer 2"><g id="Layer_3" data-name="Layer 3"><path class="cls-1" d="M192.15,1.3a.44.44,0,0,1-.12.87,41.44,41.44,0,0,0-9,1.17,37.16,37.16,0,0,0-10.23,4.19,36.2,36.2,0,0,0-8.3,6.84,9.27,9.27,0,0,0-.87,1l-.82,1a20.23,20.23,0,0,0-1.53,2.17l-.73,1.11-.63,1.17a23.69,23.69,0,0,0-1.19,2.36,35.87,35.87,0,0,0-2.59,20.84c.18.88.3,1.78.54,2.66l.74,2.64a52.48,52.48,0,0,0,2.08,5.16,43.6,43.6,0,0,0,5,8,.45.45,0,0,1-.58.66,29.32,29.32,0,0,1-7.61-6.56,40.07,40.07,0,0,1-3.52-5.22l-1.37-2.87a13.59,13.59,0,0,1-.57-1.5l-.52-1.51a34.8,34.8,0,0,1,1.83-25.29,36.23,36.23,0,0,1,7.5-10.51c.8-.73,1.59-1.46,2.42-2.15l2.61-1.89a12,12,0,0,1,1.37-.84l1.4-.78a25.29,25.29,0,0,1,2.86-1.41A32.25,32.25,0,0,1,192.15,1.3Z"/><path class="cls-1" d="M202.57,15.07a.65.65,0,0,1-.12,1.27,31.73,31.73,0,0,0-4.72.64A27.65,27.65,0,0,0,190,19.91a26.93,26.93,0,0,0-6.33,4.95,5.89,5.89,0,0,0-.67.74l-.63.76A16.45,16.45,0,0,0,181.19,28l-.57.81-.49.87a16.12,16.12,0,0,0-.93,1.74,26.78,26.78,0,0,0-2.35,15.51c.12.66.19,1.34.36,2l.5,2a36.8,36.8,0,0,0,1.45,3.9,30.64,30.64,0,0,0,2.59,4.62.65.65,0,0,1-.91.89,22.23,22.23,0,0,1-4.08-4,29.06,29.06,0,0,1-2.53-4l-1-2.17a10.75,10.75,0,0,1-.39-1.13l-.36-1.14A26,26,0,0,1,174.37,29a27,27,0,0,1,5.81-7.71c.61-.53,1.22-1.06,1.85-1.56l2-1.35a9,9,0,0,1,1-.6l1.06-.56a19.27,19.27,0,0,1,2.17-1A24.39,24.39,0,0,1,202.57,15.07Z"/><path class="cls-1" d="M211,29.37a.5.5,0,0,1,0,1,18.74,18.74,0,0,0-2.51.38,17.7,17.7,0,0,0-5,1.91,17.42,17.42,0,0,0-4.13,3.23,4,4,0,0,0-.44.48l-.41.5a11.14,11.14,0,0,0-.78,1l-.37.53-.31.57a10.28,10.28,0,0,0-.61,1.13,17.56,17.56,0,0,0-1.54,10.12c.08.43.13.88.23,1.31l.33,1.29c.3.84.56,1.72,1,2.55A20.51,20.51,0,0,0,197.69,58a.51.51,0,0,1-.74.68,15.37,15.37,0,0,1-2.25-2.31,19.64,19.64,0,0,1-1.65-2.59l-.63-1.42a5.7,5.7,0,0,1-.25-.73l-.24-.75a17,17,0,0,1,1.21-12.29,17.66,17.66,0,0,1,3.8-5c.39-.34.79-.69,1.2-1l1.3-.88a4.6,4.6,0,0,1,.68-.39l.69-.37a12,12,0,0,1,1.41-.65A16,16,0,0,1,211,29.37Z"/><path class="cls-1" d="M248.11,1.3a.44.44,0,0,0,.12.87,41.52,41.52,0,0,1,9,1.17,37.16,37.16,0,0,1,10.23,4.19,36.2,36.2,0,0,1,8.3,6.84,9.18,9.18,0,0,1,.86,1l.83,1A23.53,23.53,0,0,1,279,18.6l.73,1.11.62,1.17a23.69,23.69,0,0,1,1.19,2.36,36,36,0,0,1,2.6,20.84c-.19.88-.3,1.78-.55,2.66l-.73,2.64a52.58,52.58,0,0,1-2.09,5.16,43.07,43.07,0,0,1-5,8,.45.45,0,0,0,.58.66,29.16,29.16,0,0,0,7.61-6.56,39.15,39.15,0,0,0,3.53-5.22l1.37-2.87a11.79,11.79,0,0,0,.56-1.5l.52-1.51a34.8,34.8,0,0,0-1.82-25.29,36.26,36.26,0,0,0-7.51-10.51c-.8-.73-1.59-1.46-2.41-2.15l-2.62-1.89a11.15,11.15,0,0,0-1.37-.84l-1.39-.78a26.15,26.15,0,0,0-2.86-1.41A32.25,32.25,0,0,0,248.11,1.3Z"/><path class="cls-1" d="M237.69,15.07a.65.65,0,0,0,.11,1.27,32,32,0,0,1,4.73.64,27.65,27.65,0,0,1,7.72,2.93,26.93,26.93,0,0,1,6.33,4.95,5.14,5.14,0,0,1,.66.74l.64.76A18.27,18.27,0,0,1,259.07,28l.56.81.49.87a16.19,16.19,0,0,1,.94,1.74,26.85,26.85,0,0,1,2.34,15.51c-.12.66-.19,1.34-.35,2l-.5,2a39.13,39.13,0,0,1-1.45,3.9,31.61,31.61,0,0,1-2.6,4.62.65.65,0,0,0,.92.89,22.88,22.88,0,0,0,4.08-4,30,30,0,0,0,2.52-4l1-2.17a8.91,8.91,0,0,0,.4-1.13l.35-1.14A26,26,0,0,0,265.89,29a27.17,27.17,0,0,0-5.82-7.71c-.61-.53-1.21-1.06-1.84-1.56l-2-1.35a8.25,8.25,0,0,0-1-.6l-1.06-.56a18.35,18.35,0,0,0-2.16-1A24.39,24.39,0,0,0,237.69,15.07Z"/><path class="cls-1" d="M229.3,29.37a.5.5,0,0,0,.06,1,19,19,0,0,1,2.51.38,17.93,17.93,0,0,1,5,1.91A17.62,17.62,0,0,1,241,35.88a3.28,3.28,0,0,1,.43.48l.42.5a11,11,0,0,1,.77,1l.37.53.32.57a10.28,10.28,0,0,1,.61,1.13,17.48,17.48,0,0,1,1.53,10.12c-.08.43-.12.88-.23,1.31l-.33,1.29a25.32,25.32,0,0,1-.94,2.55A20.51,20.51,0,0,1,242.57,58a.51.51,0,0,0,.73.68,14.91,14.91,0,0,0,2.25-2.31,17.78,17.78,0,0,0,1.65-2.59l.63-1.42a4.52,4.52,0,0,0,.26-.73l.23-.75a16.93,16.93,0,0,0-1.21-12.29,17.63,17.63,0,0,0-3.79-5c-.4-.34-.79-.69-1.2-1l-1.3-.88a4.6,4.6,0,0,0-.68-.39l-.69-.37a12.79,12.79,0,0,0-1.41-.65A16,16,0,0,0,229.3,29.37Z"/><path class="cls-1" d="M231.47,40.32a16,16,0,0,0-10.95-4.66h-.79A16.09,16.09,0,0,0,204,51.74,16.05,16.05,0,0,0,209,63.34a16.1,16.1,0,0,0,22.5-23Z"/><path class="cls-1" d="M246.35,76.69a60.11,60.11,0,0,1-14.62-1.79,1.26,1.26,0,0,0-1.55,1l-8.81,44a1.25,1.25,0,0,1-2.46,0l-8.82-44a1.25,1.25,0,0,0-1.54-1A60.07,60.07,0,0,1,194,76.69a57.4,57.4,0,0,1-29.35-7.82,1.25,1.25,0,0,0-1.67,1.8l56.19,77.86a1.25,1.25,0,0,0,2,0l56.18-77.84a1.25,1.25,0,0,0-1.67-1.8A57.42,57.42,0,0,1,246.35,76.69Z"/><path class="cls-2" d="M37.63,183.51l-8.51,29.73a.84.84,0,0,1-.81.61H21a.83.83,0,0,1-.81-.62l-8.36-29.58a.85.85,0,0,0-1.66.23V213a.85.85,0,0,1-.85.85H.85A.85.85,0,0,1,0,213V161.65a.85.85,0,0,1,.85-.85H14.54a.86.86,0,0,1,.82.62l8.43,30.52a.84.84,0,0,0,1.63,0l8.49-30.52a.86.86,0,0,1,.82-.62H48.57a.85.85,0,0,1,.84.85V213a.85.85,0,0,1-.84.85H40.13a.85.85,0,0,1-.84-.85V183.74A.85.85,0,0,0,37.63,183.51Z"/><path class="cls-2" d="M57.09,160.09h8.57a.85.85,0,0,1,.85.85v8a.85.85,0,0,1-.85.85H57.09a.85.85,0,0,1-.85-.85v-8A.85.85,0,0,1,57.09,160.09Zm0,15.12h8.79a.84.84,0,0,1,.85.84V213a.85.85,0,0,1-.85.85H57.09a.85.85,0,0,1-.85-.85V176.05A.84.84,0,0,1,57.09,175.21Z"/><path class="cls-2" d="M87.19,213.85a19.49,19.49,0,0,1-8-1.71,14.61,14.61,0,0,1-3.74-2.53,26.39,26.39,0,0,1-3.1-3.49.86.86,0,0,1,.17-1.19l5.81-4.37a.84.84,0,0,1,1.2.19,12.84,12.84,0,0,0,1,1.34,15.68,15.68,0,0,0,1.93,1.81,9.23,9.23,0,0,0,2.24,1.32,6.58,6.58,0,0,0,2.57.5,7.57,7.57,0,0,0,1.61-.18,4.7,4.7,0,0,0,1.49-.57,3.32,3.32,0,0,0,1.11-1,2.81,2.81,0,0,0,.43-1.57,2.48,2.48,0,0,0-1.43-2.28A22.24,22.24,0,0,0,88.15,199c-1-.43-2.27-.93-3.74-1.5a30.74,30.74,0,0,1-7.49-4q-3.49-2.64-3.49-8.2a10.66,10.66,0,0,1,3.92-8.52,12.25,12.25,0,0,1,4.17-2.21,16.42,16.42,0,0,1,5-.75,18.43,18.43,0,0,1,7.84,1.53,19.49,19.49,0,0,1,5.75,4.32.84.84,0,0,1-.06,1.21l-5.49,4.8a.84.84,0,0,1-1.16,0,23.21,23.21,0,0,0-2.5-2.29,6,6,0,0,0-3.81-1.39,7.89,7.89,0,0,0-2.86.53,2.22,2.22,0,0,0-1.35,2.32,2.81,2.81,0,0,0,1.71,2.35,21.48,21.48,0,0,0,3.71,1.64q1.92.65,3.81,1.32a22.6,22.6,0,0,1,3.64,1.68,11.83,11.83,0,0,1,3.1,2.56,12.67,12.67,0,0,1,2.64,8.2,10.07,10.07,0,0,1-4.06,8.27Q93.46,213.86,87.19,213.85Z"/><path class="cls-2" d="M118.85,213.85a19.49,19.49,0,0,1-8-1.71,14.61,14.61,0,0,1-3.74-2.53,26.39,26.39,0,0,1-3.1-3.49.86.86,0,0,1,.17-1.19l5.8-4.37a.84.84,0,0,1,1.2.19,14.47,14.47,0,0,0,1.06,1.34,15,15,0,0,0,1.93,1.81,8.87,8.87,0,0,0,2.24,1.32,6.54,6.54,0,0,0,2.57.5,7.41,7.41,0,0,0,1.6-.18,4.67,4.67,0,0,0,1.5-.57,3.2,3.2,0,0,0,1.1-1,2.73,2.73,0,0,0,.43-1.57,2.47,2.47,0,0,0-1.42-2.28,22.24,22.24,0,0,0-2.39-1.14c-1-.43-2.27-.93-3.74-1.5a30.74,30.74,0,0,1-7.49-4q-3.49-2.64-3.5-8.2a10.63,10.63,0,0,1,3.93-8.52,12.07,12.07,0,0,1,4.17-2.21,16.4,16.4,0,0,1,4.95-.75,18.47,18.47,0,0,1,7.85,1.53,19.49,19.49,0,0,1,5.75,4.32.84.84,0,0,1-.07,1.21l-5.48,4.8a.85.85,0,0,1-1.17,0,22.17,22.17,0,0,0-2.49-2.29,6,6,0,0,0-3.82-1.39,7.8,7.8,0,0,0-2.85.53,2.22,2.22,0,0,0-1.35,2.32,2.81,2.81,0,0,0,1.71,2.35,21.15,21.15,0,0,0,3.71,1.64q1.92.65,3.81,1.32a22.6,22.6,0,0,1,3.64,1.68,12,12,0,0,1,3.1,2.56,12.67,12.67,0,0,1,2.64,8.2,10.05,10.05,0,0,1-4.07,8.27Q125.13,213.86,118.85,213.85Z"/><path class="cls-2" d="M140.23,160.09h8.57a.85.85,0,0,1,.85.85v8a.85.85,0,0,1-.85.85h-8.57a.85.85,0,0,1-.85-.85v-8A.85.85,0,0,1,140.23,160.09Zm0,15.12H149a.84.84,0,0,1,.85.84V213a.85.85,0,0,1-.85.85h-8.78a.85.85,0,0,1-.85-.85V176.05A.84.84,0,0,1,140.23,175.21Z"/><path class="cls-2" d="M172.36,213.85A15.15,15.15,0,0,1,160,208.29q-4.58-5.49-4.58-14.47T160,179.34a15.15,15.15,0,0,1,12.36-5.56,15.37,15.37,0,0,1,12.43,5.56q4.58,5.49,4.57,14.48t-4.57,14.47A15.37,15.37,0,0,1,172.36,213.85Zm0-31.23a5,5,0,0,0-3.48,1.16,7.71,7.71,0,0,0-1.95,2.85,13,13,0,0,0-.85,3.63c-.12,1.29-.18,2.48-.18,3.56s.06,2.26.18,3.55a13,13,0,0,0,.85,3.63,7.71,7.71,0,0,0,1.95,2.85,5,5,0,0,0,3.48,1.16,5.23,5.23,0,0,0,3.51-1.13,7.18,7.18,0,0,0,2-2.81,12.72,12.72,0,0,0,.85-3.66c.12-1.32.18-2.52.18-3.59q0-5.64-1.63-8.52A5.15,5.15,0,0,0,172.36,182.62Z"/><path class="cls-2" d="M215.53,189.58a14.73,14.73,0,0,0-.25-3,8.94,8.94,0,0,0-.6-2,3,3,0,0,0-2.83-1.28,9.08,9.08,0,0,0-4.08.93,11.46,11.46,0,0,0-3.11,2.23.86.86,0,0,0-.25.6V213a.85.85,0,0,1-.85.85h-8.79a.85.85,0,0,1-.84-.85V176.05a.84.84,0,0,1,.84-.84h8a.84.84,0,0,1,.85.84v.77a.84.84,0,0,0,1.29.71,24.9,24.9,0,0,1,3.78-1.93,15,15,0,0,1,5.72-1.11,12.17,12.17,0,0,1,5.25,1,9.76,9.76,0,0,1,3.57,2.81,11.91,11.91,0,0,1,2.07,4.24,19.36,19.36,0,0,1,.68,5.25V213a.85.85,0,0,1-.84.85h-8.79a.85.85,0,0,1-.85-.85Z"/><path class="cls-2" d="M252.54,213.85a20.59,20.59,0,0,1-10.11-2.28,18.3,18.3,0,0,1-6.61-6.1,26.64,26.64,0,0,1-3.58-8.7,47.71,47.71,0,0,1,0-20.28,26.19,26.19,0,0,1,3.62-8.74,18.54,18.54,0,0,1,6.64-6.09,20.59,20.59,0,0,1,10.11-2.28,21.74,21.74,0,0,1,11.41,3,13,13,0,0,1,4.31,4.32,27.68,27.68,0,0,1,2.91,6.62.85.85,0,0,1-.61,1.08l-8.81,2.11a.86.86,0,0,1-1-.53,14.61,14.61,0,0,0-2.87-4.72,8.51,8.51,0,0,0-9.45-1.24,8.36,8.36,0,0,0-2.68,2.37,13.61,13.61,0,0,0-1.74,3.35,22.92,22.92,0,0,0-1,3.84,33.44,33.44,0,0,0-.46,3.92c-.07,1.3-.11,2.47-.11,3.52q0,8.57,2.5,12.94,2.28,4.25,7.56,4.24a9.75,9.75,0,0,0,3.53-.57,7.62,7.62,0,0,0,2.53-1.6,12,12,0,0,0,1.92-2.46c.47-.77.91-1.61,1.34-2.5a.86.86,0,0,1,1-.46l9.09,2.36a.85.85,0,0,1,.57,1.14,29.56,29.56,0,0,1-3.1,5.84,18,18,0,0,1-4.39,4.44Q260.09,213.85,252.54,213.85Z"/><path class="cls-2" d="M278.91,160.09h8.57a.85.85,0,0,1,.85.85v8a.85.85,0,0,1-.85.85h-8.57a.85.85,0,0,1-.85-.85v-8A.85.85,0,0,1,278.91,160.09Zm0,15.12h8.79a.84.84,0,0,1,.84.84V213a.85.85,0,0,1-.84.85h-8.79a.85.85,0,0,1-.85-.85V176.05A.84.84,0,0,1,278.91,175.21Z"/><path class="cls-2" d="M310.58,213.82c-.72,0-1.5,0-2.36,0a10.74,10.74,0,0,1-7.18-2.24q-2.66-2.24-2.66-6.91V184.18a.85.85,0,0,0-.84-.85H294.1a.85.85,0,0,1-.85-.84v-7.15a.85.85,0,0,1,.85-.85h3.44a.85.85,0,0,0,.84-.84V163.08a.85.85,0,0,1,.85-.85H308a.85.85,0,0,1,.85.85v10.57a.84.84,0,0,0,.84.84h5.58a.85.85,0,0,1,.85.85v7.15a.85.85,0,0,1-.85.84h-5.58a.84.84,0,0,0-.84.85v19.2c0,.8.21,1.3.64,1.49a4.26,4.26,0,0,0,1.71.28,9.63,9.63,0,0,0,2.35-.28l1.52-.38a.84.84,0,0,1,1.05.82v7.15a.86.86,0,0,1-.68.83c-.53.11-1,.19-1.39.24l-1.64.18C311.91,213.76,311.29,213.79,310.58,213.82Z"/><path class="cls-2" d="M322.47,160.09h8.58a.85.85,0,0,1,.85.85v8a.85.85,0,0,1-.85.85h-8.58a.85.85,0,0,1-.84-.85v-8A.85.85,0,0,1,322.47,160.09Zm0,15.12h8.79a.84.84,0,0,1,.85.84V213a.85.85,0,0,1-.85.85h-8.79a.85.85,0,0,1-.84-.85V176.05A.84.84,0,0,1,322.47,175.21Z"/><path class="cls-2" d="M337.42,206.31l15.9-20.9a.84.84,0,0,0-.67-1.36h-13.2a.84.84,0,0,1-.84-.86l.05-7.14a.85.85,0,0,1,.85-.84h27.4a.84.84,0,0,1,.85.84v6.25a.87.87,0,0,1-.17.51l-15.84,20.84a.85.85,0,0,0,.68,1.36h14.7a.84.84,0,0,1,.84.85V213a.84.84,0,0,1-.84.85h-29a.85.85,0,0,1-.85-.85v-6.17A.82.82,0,0,1,337.42,206.31Z"/><path class="cls-2" d="M386.88,213.85a15.73,15.73,0,0,1-7.48-1.67,14.81,14.81,0,0,1-5.14-4.46,19.59,19.59,0,0,1-3-6.38,29.08,29.08,0,0,1-1-7.52,29.71,29.71,0,0,1,1-7.63,18.53,18.53,0,0,1,3-6.39,15.14,15.14,0,0,1,5.25-4.38,16.35,16.35,0,0,1,7.59-1.64,14.38,14.38,0,0,1,11.19,4.92,20.49,20.49,0,0,1,3.46,5.49,17.13,17.13,0,0,1,1.32,6.84v4.15a.85.85,0,0,1-.85.85H381.72a.85.85,0,0,0-.84,1c.12.79.25,1.57.41,2.33a8.91,8.91,0,0,0,1.07,2.88,5.83,5.83,0,0,0,2,2,6.61,6.61,0,0,0,3.42.77,7.5,7.5,0,0,0,4.53-1.32,15.85,15.85,0,0,0,2.91-2.79.86.86,0,0,1,1.12-.19l6.32,4a.85.85,0,0,1,.25,1.19,21.65,21.65,0,0,1-3,3.51,14.79,14.79,0,0,1-3.75,2.58A20.89,20.89,0,0,1,386.88,213.85Zm.22-31.94a6.56,6.56,0,0,0-2.75.5,4.84,4.84,0,0,0-1.82,1.39,6.55,6.55,0,0,0-1.1,2.1,14.74,14.74,0,0,0-.41,1.52.86.86,0,0,0,.83,1.05h10.57a.86.86,0,0,0,.84-1,7.34,7.34,0,0,0-1.67-3.72A5.7,5.7,0,0,0,387.1,181.91Z"/><path class="cls-2" d="M429.77,189.58a15.59,15.59,0,0,0-.24-3,9.45,9.45,0,0,0-.61-2,3,3,0,0,0-2.83-1.28,9,9,0,0,0-4.07.93,11.73,11.73,0,0,0-3.12,2.23.86.86,0,0,0-.25.6V213a.85.85,0,0,1-.84.85H409a.85.85,0,0,1-.85-.85V176.05a.84.84,0,0,1,.85-.84h8a.84.84,0,0,1,.85.84v.77a.84.84,0,0,0,1.3.71A24.34,24.34,0,0,1,423,175.6a15,15,0,0,1,5.72-1.11,12.13,12.13,0,0,1,5.25,1,9.76,9.76,0,0,1,3.57,2.81,12.09,12.09,0,0,1,2.08,4.24,19.76,19.76,0,0,1,.68,5.25V213a.85.85,0,0,1-.85.85h-8.79a.85.85,0,0,1-.85-.85Z"/></g></g></svg>